<?xml version="1.0" encoding="utf-8"?>
<!-- Generator: Adobe Illustrator 21.1.0, SVG Export Plug-In . SVG Version: 6.00 Build 0)  -->
<svg version="1.1" xmlns="http://www.w3.org/2000/svg" xmlns:xlink="http://www.w3.org/1999/xlink" x="0px" y="0px"
	 viewBox="0 0 32 32" style="enable-background:new 0 0 32 32;" xml:space="preserve">
<style type="text/css">
	.st0{fill:#FFFFFF;}
	.st1{fill:#0073CF;}
</style>
<g id="Layer_2">
	<rect x="2.1" y="5" class="st0" width="23.2" height="17.5"/>
	<rect x="23.1" y="18.8" class="st0" width="6.3" height="5.1"/>
</g>
<g id="Layer_1">
	<title>appointment</title>
	<path class="st1" d="M17.6,22.3H2.1V9.2H1.3V7.6h0.8V5h3.8V3.4H0.5v20.6h17.2c0-0.3-0.1-0.7-0.1-1l0,0
		C17.6,22.7,17.6,22.5,17.6,22.3L17.6,22.3z"/>
	<path class="st1" d="M25,5v2.6h0.8v1.6H25v6.6c0.6,0,1.1,0.1,1.6,0.3l0,0V3.4h-5.4V5L25,5z"/>
	<path class="st1" d="M7.5,3.4h12V5h-12C7.5,5,7.5,3.4,7.5,3.4z"/>
	<path class="st1" d="M25.8,9.2V7.6H1.3v1.6H25.8z"/>
	<path class="st1" d="M5.9,5.4c0,0.4,0.4,0.8,0.8,0.8s0.8-0.4,0.8-0.8V2.8C7.5,2.4,7.2,2,6.7,2S5.9,2.4,5.9,2.8V5.4z"/>
	<path class="st1" d="M19.6,5.4c0,0.4,0.4,0.8,0.8,0.8s0.8-0.4,0.8-0.8V2.8c0-0.4-0.4-0.8-0.8-0.8s-0.8,0.4-0.8,0.8V5.4z"/>
	<path class="st1" d="M26.6,16c-0.5-0.1-1-0.2-1.6-0.3l0,0c-0.1,0-0.2,0-0.3,0c-3.7,0-6.8,2.9-7.1,6.5l0,0c0,0.2,0,0.4,0,0.6l0,0
		c0,3.9,3.2,7.1,7.1,7.1s7.1-3.2,7.1-7.1C31.8,19.6,29.7,16.9,26.6,16L26.6,16L26.6,16z M28.1,23.7h-4.2v-4.2h1.6v2.6h2.6L28.1,23.7
		z"/>
	<path class="st1" d="M13.3,10.9h0.4c0.4,0,0.7,0.3,0.7,0.7s-0.3,0.7-0.7,0.7h-0.4c-0.4,0-0.7-0.3-0.7-0.7S12.9,10.9,13.3,10.9z"/>
	<path class="st1" d="M9.5,10.9h0.4c0.4,0,0.7,0.3,0.7,0.7s-0.3,0.7-0.7,0.7H9.5c-0.4,0-0.7-0.3-0.7-0.7S9.1,10.9,9.5,10.9z"/>
	<path class="st1" d="M21,10.9h0.4c0.4,0,0.7,0.3,0.7,0.7s-0.3,0.7-0.7,0.7H21c-0.4,0-0.7-0.3-0.7-0.7S20.6,10.9,21,10.9z"/>
	<path class="st1" d="M17.1,10.9h0.4c0.4,0,0.7,0.3,0.7,0.7s-0.3,0.7-0.7,0.7h-0.4c-0.4,0-0.7-0.3-0.7-0.7S16.8,10.9,17.1,10.9z"/>
	<path class="st1" d="M5.7,10.9h0.4c0.4,0,0.7,0.3,0.7,0.7s-0.3,0.7-0.7,0.7H5.7C5.3,12.3,5,12,5,11.6S5.3,10.9,5.7,10.9z"/>
	<path class="st1" d="M13.3,13.5h0.4c0.4,0,0.7,0.3,0.7,0.7S14.1,15,13.7,15h-0.4c-0.4,0-0.7-0.3-0.7-0.7S12.9,13.5,13.3,13.5z"/>
	<path class="st1" d="M9.5,13.5h0.4c0.4,0,0.7,0.3,0.7,0.7S10.3,15,9.9,15H9.5c-0.4,0-0.7-0.3-0.7-0.7S9.1,13.5,9.5,13.5z"/>
	<path class="st1" d="M21,13.5h0.4c0.4,0,0.7,0.3,0.7,0.7S21.8,15,21.4,15H21c-0.4,0-0.7-0.3-0.7-0.7S20.6,13.5,21,13.5z"/>
	<path class="st1" d="M17.1,13.5h0.4c0.4,0,0.7,0.3,0.7,0.7S18,15,17.6,15h-0.4c-0.4,0-0.7-0.3-0.7-0.7S16.8,13.5,17.1,13.5z"/>
	<path class="st1" d="M5.7,13.5h0.4c0.4,0,0.7,0.3,0.7,0.7S6.5,15,6.1,15H5.7C5.3,15,5,14.6,5,14.3S5.3,13.5,5.7,13.5z"/>
	<path class="st1" d="M13.3,16.2h0.4c0.4,0,0.7,0.3,0.7,0.7s-0.3,0.7-0.7,0.7h-0.4c-0.4,0-0.7-0.3-0.7-0.7S12.9,16.2,13.3,16.2z"/>
	<path class="st1" d="M9.5,16.2h0.4c0.4,0,0.7,0.3,0.7,0.7s-0.3,0.7-0.7,0.7H9.5c-0.4,0-0.7-0.3-0.7-0.7S9.1,16.2,9.5,16.2z"/>
	<path class="st1" d="M17.1,16.2h0.4c0.4,0,0.7,0.3,0.7,0.7s-0.3,0.7-0.7,0.7h-0.4c-0.4,0-0.7-0.3-0.7-0.7S16.8,16.2,17.1,16.2z"/>
	<path class="st1" d="M5.7,16.2h0.4c0.4,0,0.7,0.3,0.7,0.7s-0.3,0.7-0.7,0.7H5.7c-0.4,0-0.7-0.3-0.7-0.7S5.3,16.2,5.7,16.2z"/>
	<path class="st1" d="M13.3,18.8h0.4c0.4,0,0.7,0.3,0.7,0.7s-0.3,0.7-0.7,0.7h-0.4c-0.4,0-0.7-0.3-0.7-0.7S12.9,18.8,13.3,18.8z"/>
	<path class="st1" d="M9.5,18.8h0.4c0.4,0,0.7,0.3,0.7,0.7s-0.3,0.7-0.7,0.7H9.5c-0.4,0-0.7-0.3-0.7-0.7S9.1,18.8,9.5,18.8z"/>
	<path class="st1" d="M5.7,18.8h0.4c0.4,0,0.7,0.3,0.7,0.7s-0.3,0.7-0.7,0.7H5.7c-0.4,0-0.7-0.3-0.7-0.7S5.3,18.8,5.7,18.8z"/>
</g>
</svg>
